<?xml version="1.0" encoding="UTF-8" standalone="no"?>
<!-- Created with Inkscape (http://www.inkscape.org/) -->

<svg
   xmlns:dc="http://purl.org/dc/elements/1.1/"
   xmlns:cc="http://creativecommons.org/ns#"
   xmlns:rdf="http://www.w3.org/1999/02/22-rdf-syntax-ns#"
   xmlns:svg="http://www.w3.org/2000/svg"
   xmlns="http://www.w3.org/2000/svg"
   xmlns:sodipodi="http://sodipodi.sourceforge.net/DTD/sodipodi-0.dtd"
   xmlns:inkscape="http://www.inkscape.org/namespaces/inkscape"
   width="500"
   height="158.84102"
   viewBox="0 0 500.00003 158.84103"
   id="svg4168"
   version="1.1"
   inkscape:version="0.91 r13725"
   sodipodi:docname="header-illustration.svg">
  <defs
     id="defs4170">
    <pattern
       y="0"
       x="0"
       height="6"
       width="6"
       patternUnits="userSpaceOnUse"
       id="EMFhbasepattern" />
  </defs>
  <sodipodi:namedview
     id="base"
     pagecolor="#000000"
     bordercolor="#666666"
     borderopacity="1.0"
     inkscape:pageopacity="0"
     inkscape:pageshadow="2"
     inkscape:zoom="1.4"
     inkscape:cx="177.33821"
     inkscape:cy="-5.22449"
     inkscape:document-units="px"
     inkscape:current-layer="g5427"
     showgrid="false"
     fit-margin-top="0"
     fit-margin-left="0"
     fit-margin-right="0"
     fit-margin-bottom="0"
     inkscape:window-width="1366"
     inkscape:window-height="715"
     inkscape:window-x="-4"
     inkscape:window-y="26"
     inkscape:window-maximized="1"
     inkscape:showpageshadow="false"
     units="px" />
  <metadata
     id="metadata4173">
    <rdf:RDF>
      <cc:Work
         rdf:about="">
        <dc:format>image/svg+xml</dc:format>
        <dc:type
           rdf:resource="http://purl.org/dc/dcmitype/StillImage" />
        <dc:title></dc:title>
      </cc:Work>
    </rdf:RDF>
  </metadata>
  <g
     inkscape:label="Layer 1"
     inkscape:groupmode="layer"
     id="layer1"
     transform="translate(661.348,-63.108874)">
    <g
       id="g5427"
       style="fill:#ffffff">
      <path
         style="fill:#000000;fill-opacity:1;fill-rule:evenodd;stroke:none"
         d="m -353.77954,153.95991 c 0.15425,1.20335 -0.40865,3.10864 0.97102,3.30915 1.84021,0.25068 1.32854,-2.00546 1.32854,-3.20878 l 22.99158,-0.15052 c 0.15274,1.30364 -0.46075,3.35925 1.17454,3.40948 1.68616,0 1.02189,-2.10584 1.22682,-3.35938 1.53212,-0.10018 9.04287,-0.20035 10.1156,0.15051 1.9929,0.70193 1.32858,5.56535 1.32858,8.72419 l 0,30.5844 c 0,4.46243 0.7152,5.71582 -4.34335,5.71582 l -41.43482,0 c -5.10943,0 -4.85356,-0.35086 -4.85356,-5.26447 l 0,-35.84908 c 0,-1.40386 -0.25591,-3.20893 1.17588,-3.81054 1.17454,-0.50137 8.63441,-0.35085 10.31917,-0.25068 z m 24.62687,13.78822 c -0.71521,0.45103 -0.51168,1.40385 0.15274,1.80496 0.51162,0.30103 1.99286,0.15051 2.65719,0.15051 0.92008,0 4.85356,0.15052 5.41606,-0.15051 0.66432,-0.35086 0.76608,-1.35377 0.10167,-1.80496 -0.6134,-0.45156 -7.76656,-0.35087 -8.32766,0 z m -29.88889,0.0519 c -0.7152,0.45156 -0.56115,1.40386 0.0511,1.75483 0.46074,0.25069 7.56158,0.30104 8.12413,0 0.61339,-0.4012 0.81692,-1.35377 0.15275,-1.80491 -0.45924,-0.35086 -7.56162,-0.50138 -8.32765,0.0519 z m 29.93977,6.71863 c -0.71521,0.45103 -0.56256,1.40386 0.0511,1.80492 0.66427,0.4012 7.81744,0.20034 8.17501,0 0.61344,-0.35087 0.66433,-1.40387 0.0511,-1.80492 -0.61339,-0.45155 -7.76656,-0.35086 -8.27678,0 z m -29.93977,0.0519 c -0.66432,0.40121 -0.61344,1.40386 0.0511,1.75482 0.46074,0.30103 7.61247,0.30103 8.12413,0 0.66428,-0.40121 0.76603,-1.40386 0.15275,-1.80491 -0.45924,-0.30104 -7.56162,-0.50138 -8.32765,0.0519 z m 30.04153,13.48734 c -0.76609,0.45103 -0.81697,1.30353 -0.10165,1.8049 0.61337,0.40121 7.6125,0.35087 8.22588,-0.0519 0.61344,-0.40121 0.66433,-1.30364 0,-1.75483 -0.61338,-0.4012 -1.99286,-0.20086 -2.75894,-0.20086 -1.1236,0 -4.65004,-0.25069 -5.36519,0.20086 z m -29.93836,0 c -0.66432,0.50137 -0.81837,1.25345 -0.052,1.75482 0.61339,0.45103 1.94197,0.25069 2.70801,0.25069 1.0219,0 4.85361,0.20034 5.467,-0.20035 0.66427,-0.45155 0.66427,-1.40385 0.0511,-1.8049 -0.51021,-0.35087 -7.45845,-0.45155 -8.1736,0 z m -0.052,-6.71863 c -0.66432,0.45155 -0.66432,1.30353 0,1.70474 0.71515,0.50137 7.76655,0.30051 8.17501,0.0519 0.61339,-0.4012 0.71515,-1.40386 0.0511,-1.80491 -0.56109,-0.40121 -2.04373,-0.20086 -2.80982,-0.20086 -1.22538,0 -4.59775,-0.35086 -5.41608,0.25068 z m 29.88889,-0.0519 c -0.66428,0.45104 -0.6134,1.35363 0.0511,1.80492 0.56251,0.35086 7.61251,0.35086 8.12414,-0.0519 0.61203,-0.4012 0.7152,-1.30363 0.10166,-1.75482 -0.61338,-0.40121 -2.04374,-0.20087 -2.80978,-0.20087 -1.22682,0 -4.59774,-0.35085 -5.467,0.20087 z m -16.04194,6.86889 c -0.92013,0.70198 -0.51167,1.60441 0.45924,1.85521 0.30649,0.10017 9.29867,0.30103 10.01383,-0.2507 0.81696,-0.65168 0.40865,-1.65449 -0.51164,-1.85504 -0.20332,-0.0519 -9.09373,-0.4012 -9.96154,0.25069 z m -0.25591,-18.65149 c 1.2763,0.40121 9.65624,0.40121 10.88167,0 0.40866,-0.95271 0.40866,-0.85234 0,-1.75482 -1.43035,-0.50138 -4.85357,-0.20034 -6.53973,-0.20034 -1.94063,0 -5.41472,-0.80226 -4.34194,1.95537 z m -0.0511,13.53744 c 1.27631,0.45103 9.75802,0.45103 10.98345,0 0.97095,-2.90806 -3.21829,-1.95549 -5.36385,-1.95549 -1.27765,0 -2.65712,-0.0519 -3.93483,-0.0519 -1.63388,0.0519 -2.24733,0.35086 -1.68477,2.00556 z m 0.0511,-6.76872 c 1.2763,0.45103 9.60536,0.45103 10.93255,0 1.07418,-2.75764 -1.99145,-1.95538 -6.59061,-1.95538 -1.94063,0 -5.36384,-0.80226 -4.34194,1.95538 z m -13.23359,-15.44292 c -0.96961,0.30103 -2.14556,2.15587 1.63528,2.10578 5.67194,-0.0519 35.35589,0.20035 36.02016,-0.15052 0.20332,-0.0519 2.14556,-2.0557 -1.8911,-2.0557 -5.87546,0.0519 -34.79338,-0.20034 -35.76434,0.10018 z m -8.88882,-5.46508 0,45.97703 55.17867,0 0,-45.97703 c -1.37947,-2.45691 -1.43176,-3.60998 -5.16032,-3.66022 -2.8621,-0.0519 -5.72276,0.10017 -8.58347,-0.0519 -0.20482,-1.15312 0.40866,-3.25906 -1.22682,-3.30915 -1.63529,-0.0519 -0.97102,2.10579 -1.22543,3.35924 l -22.8898,-0.10017 c -0.10167,-1.20336 0.46073,-3.55995 -1.32855,-3.20898 -1.43035,0.25069 -0.86785,2.10594 -1.07277,3.25906 -2.9116,0.15053 -5.87547,-0.0519 -8.83794,0.0519 -3.52638,0.10017 -3.57727,1.35377 -4.85357,3.66027 z"
         id="path4721"
         inkscape:connector-curvature="0" />
      <path
         style="fill:#000000;fill-opacity:1;fill-rule:evenodd;stroke:none"
         d="m -445.02783,124.52863 0.7152,-0.65185 c 1.94197,-1.50408 12.92682,-7.16977 14.76563,-7.97192 2.60489,-1.15322 6.07899,-2.20612 8.6344,-3.40948 2.1455,-1.10298 1.07273,-1.50418 4.80268,-1.10298 5.26203,0.65169 6.02811,0.75202 11.34242,0.10017 4.13842,-0.50137 3.4741,-0.20034 4.95533,0.75218 1.58441,1.00265 6.64155,2.55697 8.83934,3.55978 2.86071,1.35378 5.26202,2.50689 7.97008,4.01109 l 7.71427,4.71301 c -0.81691,1.85514 -7.04995,12.53461 -8.12272,13.5875 -1.68617,-0.65168 -2.75894,-2.10578 -4.80269,-1.15306 -1.22683,1.80491 -0.56255,28.67926 -0.61344,33.44236 -6.0804,1.15322 -36.58126,1.20336 -42.61077,0 -0.10166,-4.7631 0.61338,-31.58736 -0.61198,-33.44236 -2.04379,-0.95272 -3.11653,0.50138 -4.85357,1.15306 -1.07418,-1.05289 -7.30722,-11.73236 -8.12418,-13.5875 z m 16.8603,38.75713 c -0.35757,0.95271 -0.25592,3.10859 -0.0511,4.06116 0.81696,0.30103 2.60489,0.30103 3.4232,-0.0519 l 0.15275,-2.75763 c 0,-1.35361 0.40867,-1.60441 -3.52497,-1.25345 z m 6.99912,-31.08594 c 0.10167,-2.10585 0.97096,-1.25345 2.7589,-2.75763 1.22683,-1.05296 1.63528,-2.40657 3.06563,-2.10585 0.76608,0.45155 0.66432,-0.70193 0.66432,1.50425 l 0,11.23108 -2.24872,-0.10018 0,-6.86904 c -0.10167,-4.06116 -2.65572,-1.45399 -4.24013,-0.90248 z m -1.88974,-0.75207 0.20332,2.70755 c 2.04379,0.45103 2.19784,-0.25069 4.03666,-0.75218 0,2.45681 -0.51162,6.06679 0.30649,8.12249 1.17454,0.65185 4.13842,0.6016 5.41612,0.0519 0.66287,-2.05571 0.20333,-9.57644 0.25441,-13.08614 0.0511,-2.95813 0.35758,-3.00827 -3.21828,-3.00827 -2.24873,0 -2.24873,1.50408 -3.72996,2.60722 -1.94058,1.50408 -3.26916,0.55152 -3.26916,3.35924 z m 15.48082,0.70198 c 0.10167,-2.05576 1.12366,-1.40391 2.75895,-2.55713 2.34908,-1.70474 0.20332,-2.25626 3.72851,-2.25626 l 0,12.68508 -2.24728,0 c 0,-13.28668 0,-8.77417 -4.24018,-7.87169 z m -1.78932,-2.4568 c -0.35758,6.01653 0.35757,5.01388 4.08753,3.66011 0,2.45675 -0.25591,6.31742 0.30649,8.37312 2.50308,0.35087 2.96388,0.25069 5.46696,0.0519 0.51026,-2.60722 0.66432,-14.08895 0.0511,-16.04432 -2.50309,-0.40121 -2.04374,-0.25069 -4.54687,-0.20035 -2.40132,3.55979 -1.63528,2.15593 -5.36519,4.16155 z m -38.62505,-6.11687 0,1.20335 c 1.94202,2.00547 8.17507,15.5429 10.42373,16.04427 1.99145,-0.10017 1.94057,-0.65184 3.4741,-1.15322 -0.0511,4.31196 -0.46074,30.73497 0.45923,32.48979 2.91159,2.20618 43.93796,2.20618 46.95271,0 0.56256,-0.65184 0.61345,-12.93567 0.56256,-22.3116 0,-4.86342 -0.0511,-8.97488 -0.10316,-10.17819 3.62814,1.20331 3.11652,3.76044 8.9411,-6.51797 1.02184,-1.80507 4.0366,-7.42051 5.00761,-8.37308 l 0,-1.15327 c -9.04286,-7.72128 -24.32017,-12.28398 -26.46567,-13.73798 -3.37233,-2.30629 -6.13127,-0.35086 -11.59682,-0.4012 -4.29247,-0.0519 -8.32912,-1.80507 -11.49652,0.45103 -2.29815,1.60436 -17.82987,6.36766 -26.15898,13.63776 z"
         id="path4723"
         inkscape:connector-curvature="0" />
      <path
         style="fill:#000000;fill-opacity:1;fill-rule:evenodd;stroke:none"
         d="m -349.84465,78.902608 c 2.29956,-1.95548 3.98432,-3.158788 7.30577,-4.662976 2.91158,-1.353722 6.28391,-2.055652 9.80889,-2.256203 0.0521,1.754825 -0.15274,3.860666 0.25592,5.264526 l 1.73704,0.100173 c 0.46075,-1.504188 0.20483,-3.61003 0.3065,-5.364854 7.15316,0.35086 12.1085,2.757633 17.06528,6.919127 -0.81837,1.153118 -4.13841,3.208822 -3.01475,4.662924 1.48118,1.103032 3.62674,-2.105946 4.7518,-2.958134 4.29102,4.863424 6.69238,9.827071 7.04996,16.746198 -1.73706,0.100172 -3.88257,-0.150517 -5.31291,0.301035 l -0.15425,1.704583 c 1.5844,0.451552 3.72991,0.200863 5.46695,0.301034 -0.35757,6.969269 -2.75888,11.882779 -7.04996,16.746249 -1.12505,-0.80215 -3.27056,-4.06116 -4.7518,-2.95818 -1.12366,1.4541 2.19639,3.55994 3.01476,4.66292 -5.00762,4.16149 -9.91207,6.56817 -17.06523,6.91913 -0.10167,-1.70474 0.15425,-3.81053 -0.3065,-5.21439 l -1.73704,-0.15052 c -0.40866,1.55433 -0.20334,3.66011 -0.25592,5.36485 -7.76515,-0.4012 -12.97629,-3.30914 -17.1147,-6.91917 0.86779,-1.10299 4.18928,-3.20877 3.01474,-4.66288 -1.48263,-1.10303 -3.57726,2.10595 -4.7518,2.95814 -4.24017,-4.86343 -6.64149,-9.77699 -7.05141,-16.746201 1.78939,-0.100171 3.9349,0.150518 5.36524,-0.301034 l 0.10167,-1.704584 c -1.53212,-0.451552 -3.67762,-0.200862 -5.46701,-0.301034 0.40967,-6.919179 2.81124,-11.882826 7.05141,-16.746249 0.86781,0.651688 3.57586,4.261716 4.80269,3.00827 1.27631,-1.253446 -2.40137,-3.860614 -3.06564,-4.713009 z m 15.88929,-9.025021 c -15.48083,1.203309 -28.25361,14.339581 -26.8233,31.085983 1.22683,14.99138 14.61304,27.57613 31.5751,26.22236 15.42854,-1.25345 28.20132,-14.38967 26.82184,-31.136073 -1.27629,-14.941287 -14.61156,-27.525992 -31.57364,-26.17227 z m -31.31923,31.687593 c -1.73711,-19.403715 13.02858,-34.445175 30.60402,-36.099775 19.56837,-1.804963 35.25273,12.935773 36.78485,30.083074 1.63528,19.303491 -13.07806,34.395081 -30.65357,35.999651 -19.51744,1.80491 -35.20179,-12.88574 -36.7353,-29.98295 z m -2.40138,-5.866288 0,5.866288 c 1.17595,2.85796 0.61339,12.23374 10.37145,21.91055 2.09463,2.05571 6.02952,5.01389 9.50361,6.66839 1.83881,0.90258 3.93344,1.75498 5.87546,2.30644 1.99286,0.6016 5.10938,0.70193 6.74326,1.454 l 7.15318,0 c 2.40131,-1.10304 12.41519,-0.80232 22.12232,-10.42883 9.75941,-9.7269 9.19691,-19.05259 10.3714,-21.91055 l 0,-5.866288 c -1.12361,-2.958133 -0.10166,-8.673952 -6.79414,-17.899472 -3.32145,-4.662821 -8.37994,-8.774176 -13.64201,-11.180845 -7.86833,-3.609977 -9.91207,-2.406616 -13.23212,-3.509701 l -4.7518,0 c -1.2777,0.401207 -5.05855,0.701982 -6.89735,1.153222 -2.19639,0.551517 -4.13837,1.353723 -6.13127,2.256203 -9.34957,4.211632 -16.50268,12.484481 -19.31251,22.261621 -0.51022,1.804911 -0.91873,5.765905 -1.37948,6.918972 z m 35.30502,0.852396 c 2.55395,-1.203361 4.34194,2.807719 1.68475,3.960992 -2.45225,1.0529 -4.7504,-2.506891 -1.68475,-3.960992 z m -0.35909,-2.757635 c -0.61198,1.253551 -2.1455,0.952724 -3.06423,3.108599 -0.71515,1.805067 0.0511,3.760438 1.0219,4.713008 0.96955,0.95273 2.80983,1.65466 4.64863,1.10314 2.40132,-0.80226 1.94198,-2.40667 3.32145,-3.1086 2.09462,0 6.94819,0.250689 8.48031,-0.25069 l 0.10316,-1.704582 c -1.63523,-0.451552 -6.48879,-0.25069 -8.58347,-0.25069 -0.8692,-0.451033 -0.92008,-1.30348 -1.63528,-2.005462 -0.66427,-0.651792 -1.5844,-0.70193 -2.04375,-1.604515 0,-2.60722 0.3065,-10.930103 -0.25591,-12.735169 -2.80983,-0.852396 -1.99286,2.506995 -1.99286,5.013888 0,2.557082 0,5.164303 0,7.721281 z"
         id="path4725"
         inkscape:connector-curvature="0" />
      <path
         style="fill:#000000;fill-opacity:1;fill-rule:evenodd;stroke:none"
         d="m -256.24592,179.07944 1.78794,-9.52635 c 0.25591,-1.15312 0.92012,-1.95538 1.32858,-2.80777 l 5.97863,3.10859 c -0.81836,1.10304 -0.66432,1.454 -1.78938,2.55714 z m 10.01383,-11.38156 c -0.91868,-0.15052 -5.10938,-2.30634 -5.7737,-2.90794 0.15425,-1.30364 6.43803,-12.53462 7.00052,-13.53743 l 6.18217,-11.68228 c 0.45923,-0.90258 0.45923,-1.10313 1.12366,-1.70474 1.07273,0.20035 1.94197,0.80216 2.96387,1.35378 0.96956,0.50138 1.99146,0.8524 2.80982,1.60441 -0.25591,1.40386 -2.65718,5.26453 -3.47414,6.81886 l -7.15312,13.38696 c -0.86925,1.55433 -2.70806,5.61549 -3.67908,6.66838 z m 9.65625,-31.63745 c 0.20483,-1.05289 1.68622,-3.66012 2.24873,-4.5123 2.40136,-3.76045 8.88882,-2.55713 4.64863,5.31461 -0.45923,0.85234 -0.5611,1.45395 -1.32858,2.00556 z m -14.81651,15.69351 c 1.84022,-0.0519 2.35044,-2.25625 3.06564,-3.5097 1.17594,-2.30649 5.97723,-11.73252 6.79555,-12.48453 l 1.73704,0.80215 c -0.0511,1.20331 -0.81832,2.10579 -1.37942,3.1086 -0.51167,1.00281 -0.92014,1.80507 -1.48123,2.75763 l -8.99338,16.89667 c -1.94058,3.76044 -4.44371,7.42056 -5.26208,11.58205 -0.40866,2.25625 -0.71516,4.26171 -1.17449,6.6183 -0.25592,1.15322 -0.40866,2.10579 -0.56256,3.20882 -0.20332,1.40402 -0.8678,2.20611 0.40866,3.05851 1.53352,0.10018 4.13842,-3.35923 5.26347,-4.41212 1.58301,-1.45416 3.21829,-3.20899 4.90445,-4.71302 2.14551,-2.00561 2.55397,-3.35939 3.67903,-5.51532 l 9.14463,-17.14745 c 1.07277,-2.0557 2.04374,-3.81053 3.11651,-5.86623 0.56256,-1.00266 1.0219,-1.85505 1.53353,-2.90795 1.02049,-1.95548 0.66286,-0.90242 1.73704,-1.55427 0.91873,-0.55152 0.20333,0 0.45924,-0.50138 0.71519,-1.90529 -1.32859,0.45155 0.61344,-3.15873 1.583,-3.00838 3.11652,-7.32018 -0.30649,-9.82723 -1.94203,-1.45395 -4.85357,-0.95257 -7.05141,0.90248 -1.78793,1.50419 -2.19639,4.16149 -3.52497,5.66573 -4.18931,-0.70193 -2.60491,-4.56259 -6.59063,3.00827 l -4.90444,9.17539 c -0.66432,1.30368 -2.45225,3.30915 -1.22683,4.81333 z"
         id="path4727"
         inkscape:connector-curvature="0" />
      <path
         style="fill:#000000;fill-opacity:1;fill-rule:evenodd;stroke:none"
         d="m -298.60092,150.40017 c 4.29246,1.35377 5.16031,2.2562 10.47461,2.20611 5.61965,0 5.31296,0.10018 10.2697,-1.35377 -0.10317,4.91356 -0.10317,9.77699 0.0511,14.69055 0.0511,2.00562 -0.30651,2.45691 -4.03666,3.50981 -3.83167,1.10297 -12.82365,1.85504 -15.8384,-1.00281 -1.3286,-1.25345 -0.86781,-15.34234 -0.92014,-18.04989 z m 22.73576,9.27555 c -0.10166,-1.855 0,-4.01108 0,-5.86607 0.0511,-0.90264 -0.25441,-2.25626 0.46075,-2.15608 0.81691,0.15051 1.583,0.70197 2.09462,1.15327 3.37092,3.15869 -0.0511,6.66838 -2.55537,6.86888 z m -2.09462,-11.18084 c -6.13127,4.71301 -19.20934,1.70473 -20.07858,-0.35086 -1.58442,-3.20882 19.0058,-4.01108 20.07858,0.35086 z m -4.13842,23.21424 c 2.19784,-0.50138 6.23304,-1.75498 6.38709,-4.3622 0.0511,-1.60441 -0.10317,-3.86062 -0.15424,-5.56536 5.82457,-0.65173 7.66478,-7.16981 4.24157,-10.27841 -1.32859,-1.15312 -2.14691,-1.30354 -4.08754,-2.00546 0.10167,-2.65731 -0.51162,-3.66012 -3.67902,-4.81334 -4.59775,-1.75482 -21.15135,-2.50689 -21.0496,3.1086 0.71521,15.09175 -0.45923,22.81304 2.50313,22.96345 4.24159,2.20616 11.24065,2.00562 15.83841,0.95272 z"
         id="path4729"
         inkscape:connector-curvature="0" />
      <path
         style="fill:#000000;fill-opacity:1;fill-rule:evenodd;stroke:none"
         d="m -495.08698,81.041392 51.12668,0.06062 0,27.281951 -0.41752,0.0606 -50.64973,-0.0606 z m 22.37234,16.333986 c -0.71622,2.693042 1.96726,1.932085 4.11601,1.932085 2.98223,0 18.01541,0.409682 18.61286,-0.527266 1.43083,-2.166258 -3.1027,-1.756449 -4.05664,-1.756449 -3.3403,0 -17.41958,-0.292722 -18.67223,0.351509 z m -0.0608,-6.849805 c -0.59577,2.693159 2.08934,1.932082 4.17704,1.932082 3.04165,0 17.89658,0.468477 18.55347,-0.527262 1.55135,-2.107535 -3.0433,-1.756207 -3.99724,-1.756207 -3.28088,0.06062 -17.48062,-0.292723 -18.73327,0.3509 z m -17.18029,10.713787 c -0.83512,-1.11229 -0.41754,-7.435124 -0.41754,-9.308724 0,-5.26905 0.23744,-4.039618 5.66736,-4.039618 6.50242,0 5.96605,-0.702472 5.96605,3.805501 0,2.049051 0.29707,8.020754 -0.23917,9.542841 -1.25264,0.64399 -9.90382,0.76114 -10.97659,0 z m -2.56634,0.17576 c 0.83511,2.86873 3.63906,2.40037 6.08487,2.40037 1.90953,0 6.80117,0.29272 8.23371,-0.40968 2.3864,-1.1124 1.72959,-4.625064 1.72959,-6.84981 0,-9.952655 1.13381,-10.889486 -6.20372,-10.889486 -9.78341,0 -9.96328,-0.760954 -9.96328,7.259678 0,1.580757 -0.17836,7.318098 0.11871,8.489048 z m -4.77119,-21.895879 0,30.443469 c 1.0133,1.34658 4.53352,0.70266 6.20371,0.70266 l 43.01349,0 c 1.67019,0 5.36864,0.70247 6.44298,-0.70266 l 0,-30.443469 c -1.07434,-1.346458 -4.77279,-0.702471 -6.44298,-0.702471 l -43.01349,0 c -1.67019,0 -5.19041,-0.643987 -6.20371,0.702471 z"
         id="path4731"
         inkscape:connector-curvature="0" />
      <path
         style="fill:#000000;fill-opacity:1;fill-rule:evenodd;stroke:none"
         d="m -505.63835,125.14906 8.25769,4.78256 -0.0451,20.14886 -8.21275,-4.78257 z m 24.81801,-0.66433 8.25768,4.7827 -0.0451,20.10462 -8.25768,-4.73833 z m -2.34687,-0.17695 0,20.19322 -11.86658,5.75675 -0.046,-20.19306 z m -24.86294,22.27446 9.29506,5.40266 c 3.15954,1.85988 2.03105,1.77126 4.73867,0.44283 l 9.83682,-4.8268 c 0.72275,-0.35436 1.76012,-1.1513 2.52786,-0.84133 1.12721,0.48711 9.83681,6.02249 11.41595,6.68672 l 0,-25.50713 -9.25012,-5.35829 c -3.1595,-1.85987 -2.03101,-1.77127 -4.73863,-0.44283 l -9.88175,4.82694 c -0.67786,0.35436 -1.71523,1.1513 -2.48169,0.84133 -1.17344,-0.48706 -10.06404,-6.15533 -11.46217,-6.68667 z"
         id="path4735"
         inkscape:connector-curvature="0" />
      <path
         style="fill:#000000;fill-opacity:1;fill-rule:evenodd;stroke:none"
         d="m -598.45483,152.65637 4.95589,-0.0519 0.51083,47.43098 -5.72212,-0.0519 c -0.91968,-6.86889 -1.27726,-41.56485 0.2554,-47.33076 z m 30.91019,5.76591 c 1.68607,-7.47064 3.21873,-13.28664 11.9553,-12.88559 7.97025,0.40121 8.99213,5.26453 9.8096,9.97754 0.76633,4.21174 -0.66412,1.4541 1.22613,4.51246 1.37947,2.20617 4.13841,2.15608 5.10912,7.47064 2.29916,12.48454 -17.31994,18.80196 -18.90379,4.91372 l 10.47377,-3.05851 c -3.42306,-2.15593 -5.41567,-0.40121 -10.26939,0.10016 -0.10216,-3.81052 1.43065,-12.03338 -2.45235,-13.28678 l 0.15324,11.13075 c -4.13841,-0.20034 -8.6344,-2.00551 -11.64886,-0.25068 3.67863,2.45675 7.51045,1.25339 11.3933,3.45956 -0.15324,6.76871 -0.30649,8.77418 -7.71467,9.12514 -13.18153,0.55152 -17.62648,-20.30614 0.8685,-21.20862 z m -2.81007,-2.50685 c -16.45125,4.41214 -15.02079,19.25309 -3.88286,25.01915 4.59815,2.35643 9.55409,0.30053 13.38591,-1.05289 l 0.10216,21.3088 c 4.08723,-0.15052 2.50338,-2.25621 2.45235,-7.52074 -0.0511,-4.46237 0,-8.92464 0.10217,-13.33692 17.52432,6.31742 23.50195,-5.51527 20.94738,-14.8912 -1.68601,-6.21705 -4.13837,-3.76029 -5.62005,-8.72409 -1.12391,-3.66007 -0.97072,-13.28664 -12.56839,-13.88839 -9.91166,-0.50138 -12.05762,6.41775 -14.91873,13.08628 z m -90.78906,-3.25906 59.72563,0 -0.30649,47.43114 -11.44433,0.15051 c -4.18955,0.50138 -3.01451,0.80216 -4.13842,1.45395 l 1.99246,0.85239 c 6.0288,1.10299 38.3185,0.6016 40.61767,-0.85239 -3.26987,-2.6573 -10.67816,-1.20331 -15.42971,-1.60436 l -0.20433,-47.23058 13.84585,0 c 8.32781,-0.75207 2.04359,0.65179 4.3428,-1.95538 -5.36469,-2.0557 -73.41819,-0.35086 -86.49756,-0.90248 l -0.0511,-59.965699 125.37791,-0.25069 -0.0511,60.166249 -6.74411,0.60176 c 2.09478,2.50689 0.81752,2.70739 9.4009,1.85521 l -0.10217,-65.130111 -130.53818,-0.05191 z"
         id="path4737"
         inkscape:connector-curvature="0" />
      <path
         style="fill:#000000;fill-opacity:1;fill-rule:evenodd;stroke:none"
         d="m -449.11532,221.94812 -2.70806,0 -0.10165,-50.239 -61.10502,0.0519 c -0.35757,6.96921 0.0511,29.88257 0.10167,50.18888 l -2.80977,0 0,-52.64568 66.62283,-0.20035 z"
         id="path4749"
         inkscape:connector-curvature="0" />
    </g>
  </g>
</svg>
