<?xml version="1.0" encoding="UTF-8" standalone="no"?>
<!-- Created with Inkscape (http://www.inkscape.org/) -->

<svg
   xmlns:dc="http://purl.org/dc/elements/1.1/"
   xmlns:cc="http://creativecommons.org/ns#"
   xmlns:rdf="http://www.w3.org/1999/02/22-rdf-syntax-ns#"
   xmlns:svg="http://www.w3.org/2000/svg"
   xmlns="http://www.w3.org/2000/svg"
   xmlns:sodipodi="http://sodipodi.sourceforge.net/DTD/sodipodi-0.dtd"
   xmlns:inkscape="http://www.inkscape.org/namespaces/inkscape"
   width="300"
   height="39.582996"
   viewBox="0 0 299.99999 39.582997"
   id="svg2"
   version="1.1"
   inkscape:version="0.91 r13725"
   sodipodi:docname="logo.svg">
  <defs
     id="defs4">
    <pattern
       y="0"
       x="0"
       height="6"
       width="6"
       patternUnits="userSpaceOnUse"
       id="EMFhbasepattern" />
  </defs>
  <sodipodi:namedview
     id="base"
     pagecolor="#000000"
     bordercolor="#666666"
     borderopacity="1.0"
     inkscape:pageopacity="0"
     inkscape:pageshadow="2"
     inkscape:zoom="1.4"
     inkscape:cx="298.17393"
     inkscape:cy="-20.112287"
     inkscape:document-units="px"
     inkscape:current-layer="layer1"
     showgrid="false"
     fit-margin-top="0"
     fit-margin-left="0"
     fit-margin-right="0"
     fit-margin-bottom="0"
     showborder="true"
     inkscape:showpageshadow="false"
     inkscape:window-width="1366"
     inkscape:window-height="715"
     inkscape:window-x="-4"
     inkscape:window-y="26"
     inkscape:window-maximized="1"
     units="px" />
  <metadata
     id="metadata7">
    <rdf:RDF>
      <cc:Work
         rdf:about="">
        <dc:format>image/svg+xml</dc:format>
        <dc:type
           rdf:resource="http://purl.org/dc/dcmitype/StillImage" />
        <dc:title></dc:title>
      </cc:Work>
    </rdf:RDF>
  </metadata>
  <g
     inkscape:label="Layer 1"
     inkscape:groupmode="layer"
     id="layer1"
     transform="translate(219.0563,-50.11496)">
    <g
       id="g4161"
       transform="matrix(0.49478746,0,0,0.49478746,-110.67,45.316534)">
      <path
         style="fill:#ffffff;fill-opacity:1;fill-rule:nonzero;stroke:none"
         d="m 13.330575,47.375773 -27.079513,0 0,23.483111 c -13.746928,-0.130689 -24.523505,-6.868298 -22.934456,-21.782476 1.450641,-13.736588 7.529682,-18.773338 22.450909,-18.773338 4.076259,0 19.4124386,1.765999 24.455656,2.74732 l 3.107404,-23.3524358 -58.44188,0 c -7.046203,3.2706428 -13.125244,8.3728388 -18.237259,15.8953228 l 24.592642,64.104682 52.086497,0 z"
         id="path4141"
         inkscape:connector-curvature="0" />
      <path
         style="fill:#ffffff;fill-opacity:1;fill-rule:evenodd;stroke:none"
         d="m -122.61987,86.10023 1.65804,-4.448152 -16.92475,-40.752266 11.81274,-31.2018578 49.599965,0 30.740886,80.0000048 -34.125919,0 -22.451112,-56.582211 -20.30985,52.984482 z"
         id="path4143"
         inkscape:connector-curvature="0" />
      <path
         style="fill:#ffffff;fill-opacity:1;fill-rule:evenodd;stroke:none"
         d="m -219.05632,47.572036 14.9905,-37.8740818 48.4256,0 33.78037,80.0000048 -34.05672,0 -23.28013,-58.021233 -21.7605,57.497802 z m 97.61102,42.125923 1.93418,-5.167656 0,0 -1.93418,5.167656 z"
         id="path4145"
         inkscape:connector-curvature="0" />
      <path
         style="fill:#ffffff;fill-opacity:1;fill-rule:nonzero;stroke:none"
         d="m 341.60218,45.674942 0,26.557788 -5.87265,0 0,-35.584611 5.18088,0 21.69224,26.295978 0,-26.295978 6.01024,0 0,35.584611 -5.32037,0 z m -296.563557,13.475157 0,13.082631 -5.870752,0 0,-35.584611 12.018591,0 c 4.697333,0 8.567198,0.915774 11.399344,2.74732 2.900944,1.76619 4.351449,4.578861 4.351449,8.37286 0,2.485699 -0.760565,4.644224 -2.211071,6.345049 -1.450506,1.700642 -3.453288,3.008941 -5.93955,3.793809 -2.488158,0.850416 -5.182708,1.242942 -8.221315,1.242942 z M 60.789417,47.964561 c 0,-2.616598 -0.829364,-4.448145 -2.417464,-5.494823 -1.658795,-1.046489 -4.076259,-1.569926 -7.254289,-1.569926 l -6.079041,0 0,14.063762 5.733089,0 c 2.971705,0 5.389169,-0.588572 7.185559,-1.700642 1.796389,-1.177394 2.69455,-2.943576 2.832146,-5.298371 z m 9.325936,24.268169 0,-35.584611 11.951622,0 c 4.6974,0 8.496505,0.850226 11.397516,2.616415 2.969741,1.766183 4.420247,4.382598 4.420247,7.980327 -0.06907,2.224079 -0.75867,4.121174 -2.07158,5.690904 -1.312911,1.569926 -3.040503,2.812867 -5.249678,3.597736 l 10.49929,15.699229 -6.424927,0 -9.325869,-14.39093 c -0.689872,0.130891 -2.002783,0.130891 -3.86797,0.130891 l -5.457966,0 0,14.260025 z M 91.736899,47.441131 c 0,-2.354795 -0.829431,-4.05562 -2.486262,-5.036751 -1.658794,-1.046678 -4.076258,-1.504568 -7.254356,-1.504568 l -6.010243,0 0,13.017273 5.735053,0 c 2.969808,0 5.387273,-0.52343 7.183662,-1.569919 1.86512,-0.981131 2.763348,-2.681963 2.832146,-4.906035 z m 8.152517,7.130107 c 0,-3.532378 0.827464,-6.672224 2.555064,-9.484902 1.72759,-2.812861 4.14505,-5.102298 7.18555,-6.737575 2.96975,-1.635284 6.42297,-2.4857 10.22403,-2.551058 3.79918,0 7.25246,0.784869 10.2929,2.420342 3.03861,1.56973 5.38727,3.728445 7.04607,6.541123 1.72562,2.812868 2.55506,5.952714 2.55506,9.484896 0,3.532378 -0.82944,6.672224 -2.55506,9.484902 -1.7276,2.878225 -4.07626,5.102298 -7.18556,6.737575 -3.03854,1.635284 -6.49373,2.4857 -10.36169,2.4857 -3.73038,0 -7.1148,-0.785058 -10.1553,-2.354985 -2.96975,-1.569919 -5.31841,-3.728444 -7.046,-6.541312 -1.7276,-2.812678 -2.555064,-5.952524 -2.555064,-9.484706 z m 20.102244,-14.39093 c -2.69455,0 -5.04322,0.588775 -7.18549,1.83154 -2.14038,1.242948 -3.79917,2.943583 -4.97253,5.102298 -1.17531,2.224079 -1.79639,4.644225 -1.79639,7.457092 0,2.681766 0.55255,5.102108 1.7276,7.260823 1.17335,2.158525 2.83214,3.859357 4.90372,5.036751 2.07348,1.177394 4.35145,1.766189 6.97721,1.766189 2.62582,0 5.04328,-0.588775 7.11486,-1.831547 2.14227,-1.242948 3.7991,-2.943583 4.97442,-5.167656 1.17335,-2.158721 1.79639,-4.644414 1.79639,-7.391734 0,-2.681956 -0.62297,-5.102109 -1.79639,-7.260823 -1.17532,-2.158525 -2.76335,-3.793999 -4.83493,-5.036751 -2.00468,-1.177394 -4.35334,-1.766182 -6.90847,-1.766182 z m 56.57649,14.063756 c 0,3.46683 -0.68987,6.606676 -2.14228,9.288632 -1.45043,2.74732 -3.59081,4.840677 -6.49182,6.410414 -2.83215,1.504562 -6.21853,2.28962 -10.2241,2.28962 l -14.78383,0 0,-35.584611 15.05902,0 c 6.14784,0 10.84714,1.635284 13.95447,4.840488 3.1093,3.205203 4.62854,7.457086 4.62854,12.755457 z m -5.94145,0.06568 c 0,-4.120977 -1.03575,-7.391538 -3.10733,-9.811873 -2.07348,-2.354775 -5.18082,-3.532175 -9.32587,-3.532175 l -9.39474,0 0,27.080846 8.91119,0 c 3.93677,0 7.11487,-1.177394 9.39473,-3.597736 2.34867,-2.354788 3.52202,-5.756254 3.52202,-10.139048 z m 9.11955,-17.661302 5.87075,0 0,22.371075 c 0,3.00913 0.96885,5.363918 2.90284,7.06456 1.86519,1.700831 4.35145,2.551247 7.52954,2.551247 3.17803,0 5.6643,-0.850416 7.52948,-2.551247 1.86519,-1.766 2.76342,-4.120977 2.76342,-7.06456 l 0,-22.371075 5.94138,0 0,22.894512 c 0,2.485693 -0.62297,4.775123 -2.00468,6.802933 -1.31095,2.027809 -3.17613,3.597546 -5.66429,4.709582 -2.48626,1.177584 -5.31848,1.76619 -8.56531,1.76619 -3.31569,0 -6.14783,-0.588572 -8.63606,-1.700642 -2.48626,-1.17757 -4.35145,-2.747307 -5.66429,-4.775117 -1.38171,-2.027809 -2.00278,-4.317239 -2.00278,-6.802932 z m 55.54066,-0.719687 c 1.45051,0 3.2469,0.196236 5.38917,0.523431 2.14038,0.392336 2.69266,0.588572 4.07436,1.308306 l -0.68987,3.924707 c -1.86519,-0.588774 -3.31569,-0.981131 -4.49101,-1.177394 -1.10455,-0.196235 -2.62385,-0.327194 -4.42024,-0.327194 -2.55696,0 -4.83683,0.654119 -6.90841,1.831546 -2.07347,1.177394 -3.66157,2.878226 -4.90562,5.102298 -1.17342,2.224073 -1.7257,4.709766 -1.7257,7.457086 0,2.616415 0.48348,4.971393 1.51931,7.129918 1.03575,2.158715 2.55506,3.859356 4.55974,5.102298 2.00278,1.242751 4.35144,1.831546 6.9772,1.831546 3.45329,0 6.49372,-0.52343 9.18637,-1.569926 l 2.27987,3.793809 c -1.38164,0.588775 -3.17803,1.112037 -5.3184,1.504562 -2.14228,0.392539 -4.14506,0.588775 -5.87265,0.588775 -4.14506,0 -7.66708,-0.785051 -10.63878,-2.420335 -2.90094,-1.635284 -5.11202,-3.793999 -6.63132,-6.606677 -1.5193,-2.74732 -2.21107,-5.887166 -2.21107,-9.288633 0,-3.532378 0.76057,-6.737582 2.41936,-9.615617 1.5881,-2.812861 3.93677,-5.03694 6.90651,-6.672218 3.0405,-1.635284 6.49372,-2.420342 10.50118,-2.420342 z m 12.64156,0.719701 33.08976,0 0,3.990072 -13.53972,0 0,31.594539 -6.01025,0 0,-31.594539 -13.53979,0 z m 41.58626,0 0,35.584611 -5.87075,0 0,-35.584611 z m 3.1781,17.923119 c 0,-3.532378 0.82937,-6.672224 2.55506,-9.484902 1.72759,-2.812861 4.07626,-5.102298 7.11669,-6.737575 3.03861,-1.635285 6.49373,-2.4857 10.2929,-2.551058 3.79917,0 7.18366,0.784868 10.2241,2.420342 3.03854,1.56973 5.38727,3.728445 7.11479,6.541123 1.7276,2.812867 2.55513,5.952713 2.55513,9.484895 0,3.532378 -0.82753,6.672224 -2.55513,9.484902 -1.72752,2.812672 -4.14505,5.102298 -7.18359,6.737575 -3.04044,1.635284 -6.49372,2.4857 -10.36359,2.4857 -3.73037,0 -7.18359,-0.785058 -10.1534,-2.354984 -3.04044,-1.56992 -5.3891,-3.728445 -7.0479,-6.541312 -1.72569,-2.812678 -2.55506,-5.952524 -2.55506,-9.484706 z m 20.10225,-14.390931 c -2.69456,0 -5.11202,0.588775 -7.2524,1.83154 -2.07347,1.242949 -3.73037,2.943584 -4.97448,5.102298 -1.17525,2.22408 -1.72753,4.644225 -1.72753,7.457093 0,2.681766 0.55255,5.102108 1.72753,7.260823 1.17341,2.158525 2.76341,3.859356 4.83499,5.03675 2.07348,1.177394 4.42214,1.766189 6.9772,1.766189 2.69455,0 5.04322,-0.588775 7.18556,-1.831547 2.07151,-1.242948 3.73031,-2.943583 4.90373,-5.167655 1.24404,-2.158722 1.79639,-4.644415 1.79639,-7.391735 0,-2.681956 -0.55255,-5.102108 -1.72759,-7.260823 -1.17342,-2.158525 -2.76342,-3.793999 -4.83493,-5.03675 -2.07355,-1.177394 -4.35145,-1.766183 -6.90847,-1.766183 z"
         id="path4147"
         inkscape:connector-curvature="0" />
      <path
         style="fill:#ffffff;fill-opacity:1;fill-rule:nonzero;stroke:none"
         d="m 380.63338,35.797703 c 1.31095,0 2.48626,0.261648 3.45322,0.850416 1.03583,0.523228 1.79639,1.30811 2.34867,2.223883 0.55255,0.981321 0.82943,2.02781 0.82943,3.2054 0,1.177394 -0.27695,2.223883 -0.82943,3.205204 -0.55255,0.915773 -1.31284,1.635277 -2.34867,2.224072 -0.96696,0.523228 -2.14227,0.850226 -3.45322,0.850226 -1.38171,0 -2.55702,-0.326992 -3.59278,-0.850226 -0.96702,-0.588775 -1.79639,-1.308299 -2.27987,-2.224072 -0.55254,-0.981321 -0.82943,-2.02781 -0.82943,-3.205204 0,-1.17759 0.27695,-2.224079 0.82943,-3.2054 0.48348,-0.915773 1.31285,-1.700635 2.27987,-2.223883 1.03576,-0.588775 2.21107,-0.850416 3.59278,-0.850416 z m 0,1.177394 c -1.10652,0 -2.07347,0.196236 -2.90291,0.588775 -0.75867,0.457884 -1.3817,1.046489 -1.86518,1.831547 -0.41441,0.784868 -0.62094,1.700642 -0.62094,2.681963 0,0.981131 0.20653,1.831547 0.62094,2.616408 0.48348,0.785058 1.10651,1.373664 1.86518,1.831547 0.82944,0.457883 1.79639,0.654119 2.90291,0.654119 1.03576,0 2.00278,-0.196236 2.76145,-0.654119 0.82937,-0.457883 1.45241,-1.046489 1.86519,-1.831547 0.48348,-0.784861 0.69177,-1.635277 0.69177,-2.616408 0,-0.981321 -0.20856,-1.897095 -0.69177,-2.681963 -0.41306,-0.785058 -1.03582,-1.373657 -1.86519,-1.831547 -0.75867,-0.392539 -1.72569,-0.588775 -2.76145,-0.588775 z m 2.83215,3.532379 c 0,0.457883 -0.13949,0.850226 -0.41441,1.177394 -0.20856,0.326991 -0.55255,0.588639 -0.89816,0.71951 l 1.79632,3.205204 -1.65873,0 -1.5193,-2.878225 -1.24412,0 0,2.878225 -1.45043,0 0,-7.195465 2.48626,0 c 0.89816,0 1.59,0.130891 2.07347,0.52343 0.55255,0.326992 0.82937,0.85022 0.82937,1.56992 z m -1.5212,0.06501 c 0,-0.457883 -0.13746,-0.785058 -0.41441,-0.915773 -0.27492,-0.06568 -0.68987,-0.130892 -1.31095,-0.130892 l -0.69184,0 0,2.093357 0.62094,0 c 0.55458,0 1.03772,-0.06568 1.31291,-0.196235 0.34602,-0.196236 0.48348,-0.457884 0.48348,-0.850416 z"
         id="path4149"
         inkscape:connector-curvature="0" />
    </g>
  </g>
</svg>
