<?xml version="1.0" encoding="UTF-8" standalone="no"?>
<!-- Created with Inkscape (http://www.inkscape.org/) -->

<svg
   xmlns:dc="http://purl.org/dc/elements/1.1/"
   xmlns:cc="http://creativecommons.org/ns#"
   xmlns:rdf="http://www.w3.org/1999/02/22-rdf-syntax-ns#"
   xmlns:svg="http://www.w3.org/2000/svg"
   xmlns="http://www.w3.org/2000/svg"
   xmlns:sodipodi="http://sodipodi.sourceforge.net/DTD/sodipodi-0.dtd"
   xmlns:inkscape="http://www.inkscape.org/namespaces/inkscape"
   width="297.70947"
   height="458.23724"
   viewBox="0 0 297.70947 458.23726"
   id="svg4825"
   version="1.1"
   inkscape:version="0.91 r13725"
   sodipodi:docname="sprite.svg">
  <defs
     id="defs4827">
    <pattern
       y="0"
       x="0"
       height="6"
       width="6"
       patternUnits="userSpaceOnUse"
       id="EMFhbasepattern" />
    <pattern
       y="0"
       x="0"
       height="6"
       width="6"
       patternUnits="userSpaceOnUse"
       id="EMFhbasepattern-0" />
    <pattern
       y="0"
       x="0"
       height="6"
       width="6"
       patternUnits="userSpaceOnUse"
       id="EMFhbasepattern-8" />
    <pattern
       y="0"
       x="0"
       height="6"
       width="6"
       patternUnits="userSpaceOnUse"
       id="EMFhbasepattern-9" />
    <pattern
       y="0"
       x="0"
       height="6"
       width="6"
       patternUnits="userSpaceOnUse"
       id="EMFhbasepattern-7" />
    <pattern
       y="0"
       x="0"
       height="6"
       width="6"
       patternUnits="userSpaceOnUse"
       id="EMFhbasepattern-6" />
    <pattern
       y="0"
       x="0"
       height="6"
       width="6"
       patternUnits="userSpaceOnUse"
       id="EMFhbasepattern-89" />
    <pattern
       y="0"
       x="0"
       height="6"
       width="6"
       patternUnits="userSpaceOnUse"
       id="EMFhbasepattern-78" />
    <pattern
       y="0"
       x="0"
       height="6"
       width="6"
       patternUnits="userSpaceOnUse"
       id="EMFhbasepattern-2" />
    <pattern
       y="0"
       x="0"
       height="6"
       width="6"
       patternUnits="userSpaceOnUse"
       id="EMFhbasepattern-5" />
    <pattern
       y="0"
       x="0"
       height="6"
       width="6"
       patternUnits="userSpaceOnUse"
       id="EMFhbasepattern-85" />
  </defs>
  <sodipodi:namedview
     id="base"
     pagecolor="#262626"
     bordercolor="#666666"
     borderopacity="1.0"
     inkscape:pageopacity="0"
     inkscape:pageshadow="2"
     inkscape:zoom="2"
     inkscape:cx="114.69071"
     inkscape:cy="126.33843"
     inkscape:document-units="px"
     inkscape:current-layer="layer1"
     showgrid="false"
     inkscape:showpageshadow="false"
     units="px"
     fit-margin-top="0"
     fit-margin-left="0"
     fit-margin-right="0"
     fit-margin-bottom="0"
     inkscape:window-width="1366"
     inkscape:window-height="715"
     inkscape:window-x="-4"
     inkscape:window-y="26"
     inkscape:window-maximized="1" />
  <metadata
     id="metadata4830">
    <rdf:RDF>
      <cc:Work
         rdf:about="">
        <dc:format>image/svg+xml</dc:format>
        <dc:type
           rdf:resource="http://purl.org/dc/dcmitype/StillImage" />
        <dc:title></dc:title>
      </cc:Work>
    </rdf:RDF>
  </metadata>
  <g
     inkscape:label="Layer 1"
     inkscape:groupmode="layer"
     id="layer1"
     transform="translate(676.6679,-10.769975)">
    <path
       style="fill:#ffffff;fill-opacity:1;fill-rule:evenodd;stroke:none"
       d="m -674.56568,11.009653 c -2.20504,-1.3452128 -3.14823,3.435483 -0.46165,2.890309 2.3676,-0.394477 3.66806,1.740575 3.95323,3.795617 0.62845,2.970694 1.80108,5.794297 2.97866,8.581826 0.84472,2.378577 3.6584,3.708273 6.02969,2.870711 4.01077,-0.435996 8.0843,0.52341 12.06194,-0.345914 0.59755,-2.365287 -2.5829,-2.744674 -4.23024,-2.365017 -3.03691,0.0657 -6.07779,0.14412 -9.10852,0.290497 -2.26245,-0.06172 -3.3813,-2.201847 -3.53713,-4.198659 -0.90258,-3.479726 -2.3441,-6.785226 -3.60713,-10.135412 -0.70874,-1.582295 -2.64464,-1.376563 -4.07885,-1.383958 z m 8.70529,2.523139 c -2.21718,1.309056 -1.11042,4.187792 0.0274,5.841345 0.64778,2.087675 1.18369,4.870478 3.69638,5.41779 2.97183,0.772597 6.03432,-0.337867 9.04445,0.100793 1.86758,0.01485 4.7332,0.826753 5.57468,-1.476756 0.56564,-1.797328 0.96429,-3.73498 0.8199,-5.617943 -0.68311,-3.064593 -4.07472,-3.492212 -6.66531,-3.214585 -4.17643,-0.20634 -8.33465,-0.672187 -12.49744,-1.050644 z m 1.75037,2.578999 c 4.7067,0.40107 9.39825,1.031159 14.12482,1.159484 2.16158,2.135194 -0.19953,5.978857 -3.08141,5.440897 -2.41534,-0.452211 -4.80891,-0.103124 -7.21833,-0.167789 -2.33289,-0.08038 -3.07065,-2.39114 -3.39444,-4.305497 -0.174,-0.702359 -0.32427,-1.411153 -0.43064,-2.127095 z m 11.18188,14.133296 c -2.54899,0.201593 -2.29414,4.732532 0.27265,4.628499 2.04116,0.09967 2.9208,-2.744614 1.28313,-3.88117 -0.44213,-0.377474 -0.98419,-0.639756 -1.55578,-0.747329 z m -10.12049,0.09311 c -2.32371,-0.359024 -3.06462,3.354221 -1.09973,4.309172 2.50168,1.270678 4.39983,-2.751776 1.91045,-4.00696 l -0.38894,-0.191122 -0.42178,-0.11109 0,0 z"
       id="path5378"
       inkscape:connector-curvature="0" />
    <path
       style="fill:#000000;fill-opacity:1;fill-rule:evenodd;stroke:none"
       d="m -668.35067,69.524463 c -3.43961,0.02296 -6.90503,0.135317 -7.55768,0.310682 1.46406,0.751616 6.7905,5.697367 7.67249,5.730743 0.70555,0.01678 7.32285,-5.41093 7.28756,-5.811791 -0.54683,-0.183726 -3.96274,-0.252601 -7.40237,-0.229634 z m -8.15541,0.962439 c -0.21169,0.768319 -0.2308,8.117629 0.0336,8.98616 0.37041,-0.05011 5.09696,-4.307783 5.30863,-4.808826 -0.35279,-0.618011 -4.77794,-4.16063 -5.34239,-4.177334 z m 16.64854,0.03377 c -0.68795,-0.01678 -4.95547,3.458751 -5.2377,4.143562 0.26456,0.651387 4.49952,4.708794 5.09925,4.825712 0.54681,-0.71819 0.52651,-7.983824 0.13853,-8.969274 z m -6.37913,4.815583 c -0.5452,-0.02954 -0.46239,0.981168 -1.84045,1.148174 -1.83447,0.217146 -0.89722,-2.572109 -4.16045,0.317437 -0.59971,0.53447 -3.35221,2.873057 -3.29931,3.424264 0.98778,0.334014 13.77488,0.316778 14.63922,-0.05066 0.0354,-0.467667 -2.68163,-2.741009 -3.22839,-3.258791 -1.23034,-1.171267 -1.78349,-1.562715 -2.11062,-1.580428 z"
       id="path5444"
       inkscape:connector-curvature="0" />
    <path
       inkscape:connector-curvature="0"
       id="path5452"
       d="m -676.30858,46.550915 c -0.98237,2.947252 0.21413,6.163008 1.61131,8.776679 1.17961,2.206557 3.32632,5.193247 6.4054,6.219556 0.6024,0.200792 3.16406,-1.181285 3.65723,-1.5451 -0.24056,-0.784393 -2.39069,-2.980007 -2.92881,-3.317794 -0.66844,0.164512 -1.47331,0.79415 -2.2096,0.548734 -1.53949,-0.513139 -3.68989,-4.381385 -3.83027,-6.470439 -0.16331,-2.466457 2.44134,0.373602 1.4437,-3.885081 -0.17273,-0.70899 -0.28821,-1.310869 -0.42836,-2.06182 -0.72745,-0.04881 -3.55689,1.244046 -3.72062,1.735259 z"
       style="fill:#000000;fill-opacity:1;fill-rule:evenodd;stroke:none" />
    <path
       inkscape:connector-curvature="0"
       id="path5470"
       d="m -661.84741,110.14278 c -3.55475,-0.75912 -5.70135,-2.78692 -5.18932,-7.28972 0.95515,-8.319213 13.39179,-6.364209 12.08214,2.05903 -0.41357,2.65174 -2.1466,4.48197 -4.51973,5.18911 -1.73306,0.51995 -1.01423,0.33276 -2.37309,0.0416 z m -7.0504,-0.42635 c -2.47156,2.65174 -9.23644,8.40241 -7.48364,10.26384 2.92454,1.85104 7.35563,-5.86505 10.05368,-7.6537 2.89499,0.97754 3.43658,2.06943 7.18826,1.40388 6.56787,-1.15428 10.5165,-10.74218 4.68712,-16.898423 -3.7123,-3.920428 -8.7736,-3.722859 -12.82067,-0.488761 -1.54598,1.237497 -2.78668,3.847634 -3.13132,5.865074 -0.6696,3.83723 0.58097,4.49236 1.50657,7.50809 z"
       style="fill:#ffffff;fill-opacity:1;fill-rule:evenodd;stroke:none" />
    <path
       style="fill:#ffffff;fill-opacity:1;stroke:none;stroke-width:3.07299995;stroke-linecap:round;stroke-linejoin:round;stroke-miterlimit:4;stroke-dasharray:none;stroke-dashoffset:0;stroke-opacity:1"
       d="m -667.44059,148.12148 -9.22727,-1.11364 m 0,0 4.69318,-5.88636 4.85227,5.88636"
       id="rect5482"
       inkscape:connector-curvature="0"
       sodipodi:nodetypes="ccccc" />
    <path
       inkscape:connector-curvature="0"
       id="path4157"
       d="m -663.47171,167.09663 -8.31745,8.08678 8.4464,8.6092 -2.55756,2.73739 -10.76754,-11.20031 10.76754,-11.11672 z"
       style="fill:#ffffff;fill-opacity:1;fill-rule:evenodd;stroke:none" />
    <path
       inkscape:connector-curvature="0"
       id="path4202"
       d="m -598.66983,209.3947 c -1.94191,-0.0497 -0.52486,-0.84486 -2.93936,-0.54671 l -1.10197,3.05637 -3.62175,-0.12424 c 0.91831,-2.06232 1.91578,-0.5218 2.88709,-2.98175 -8.13494,-0.94422 -9.44746,1.49088 -11.33636,0.94425 -2.25697,-0.67092 0.47185,-1.11818 -3.51663,-0.6212 -0.39368,5.59089 0.68252,7.42963 -4.90718,9.19381 l 4.43479,2.73335 c -0.0525,0 -4.90716,-0.0257 -4.98587,-0.0496 -1.8107,-0.62119 -1.31207,-2.48476 -0.761,-4.37326 l -1.25957,-0.2982 c -1.36458,-0.24848 0.13118,0.47214 -1.46956,-0.39754 -0.86597,-0.47216 -1.31207,-1.11818 -2.49297,-1.7891 -1.67947,-0.94422 -4.93336,-1.56542 -7.42634,-1.1679 -3.93623,0.57155 -4.88089,7.1563 -9.55191,3.80178 l -1.07592,-0.96907 c -0.0787,-0.0496 -0.18366,-0.19883 -0.28866,-0.24848 -1.31205,0.82004 -1.78444,0.82004 -1.9156,2.46002 1.65318,1.36666 1.99431,0.19884 2.86029,1.86365 -1.36456,2.16179 -3.43763,0.99389 -5.45824,0.32297 -0.55108,1.76428 -1.65321,3.87633 -1.78439,6.33635 3.59505,1.06846 1.15463,2.53449 5.93055,4.24904 0.18366,1.91329 -0.44608,2.85754 0.68231,4.14963 1.44326,1.63999 1.49574,0.3479 2.99155,2.31091 0.89219,1.143 0.76095,1.83875 3.14895,2.08725 1.33834,0.14919 1.1546,0 2.23052,-0.0746 0.60356,-0.0497 0.36742,-0.12424 1.20711,-0.0993 2.36173,0.0496 2.15184,2.58421 0.68231,4.27392 -1.9681,2.23636 -2.15184,0.39761 -4.17244,0.12424 -0.86597,2.48484 0.70852,5.91393 -2.07308,6.58485 -1.44326,0.34787 -3.75247,-0.32305 -5.01215,0.39751 -1.07585,1.36666 -0.47229,1.86365 -1.60071,3.05637 -0.44608,0.49699 -2.09929,1.34177 -3.09653,2.13698 -1.18081,9.39272 1.04974,4.746 3.17531,7.23084 1.54822,1.81416 0.8659,6.98217 2.33543,8.97051 1.78444,1.09329 6.3767,0.79493 8.92217,0.86971 1.5745,4.89504 0.86598,2.7085 4.04119,5.49103 2.28302,2.01306 -0.13119,3.65298 -0.0262,6.60975 0.10495,3.00685 0.0787,5.61591 0.761,8.54799 2.0206,8.82099 2.23055,2.53428 4.19865,7.1063 0.34121,0.74554 0.0525,0.24822 0.47237,1.0439 0.94469,1.71468 0.70853,0.12424 0.8135,1.56513 0.0262,0.42252 -0.86597,4.32375 -1.02342,4.74624 -1.86316,1.441 -2.388,0.49729 -4.4086,2.38548 -4.85471,4.54732 -3.09645,3.5034 -17.66052,2.08707 -1.12842,1.83882 -0.26242,1.44102 -2.46676,2.18656 -9.39447,3.25513 -6.21918,-2.73319 -10.60157,-3.32918 l -0.23613,2.90666 c -0.0262,0.0749 -0.0787,0.22353 -0.13119,0.32305 -3.22778,-0.0995 -1.44334,-0.37241 -2.54547,-2.80794 -0.761,-1.66461 -0.97095,-0.74482 -2.67663,-2.13646 -0.44611,1.81413 -0.44611,0.86968 0.2099,2.13646 0.78721,1.56586 0.68223,-0.19806 1.04963,2.36076 0.57729,4.05077 -0.62982,1.61524 3.38515,2.73319 -0.0525,5.11937 -2.44047,4.6221 0.23614,6.98288 l -0.91848,0.67077 c -0.81342,0.67076 -0.18366,0.0494 -0.81342,0.72087 0.13119,0.0988 0.34113,0.0257 0.39363,0.19806 0.0787,0.14945 0.28863,0.14945 0.39361,0.17415 0.0787,0.0257 0.26242,0.0995 0.36739,0.14893 0.10495,0.0257 0.26234,0.0749 0.36732,0.12424 1.627,0.52193 -0.36732,-0.64538 1.18089,0.29835 -1.62697,1.441 -0.761,1.71469 -3.22768,1.06859 -0.0787,4.34841 -1.18089,0.59674 -1.12842,4.47255 2.46668,1.96296 2.49297,0.72087 5.45823,0.17414 l 0.4724,3.10561 c -1.28587,1.094 -1.1809,0.86967 -2.67666,1.4163 1.70568,3.08166 0.62976,3.47948 -0.10495,6.5357 1.83692,1.14264 2.12555,0.29763 2.93905,2.33537 -1.28586,0.82031 -2.70291,0.74554 -3.46391,1.83882 l 0.65602,0.14894 c 0.0787,0 0.26245,0.0257 0.34121,0.0257 l 1.86313,0.0995 c 1.07584,2.63373 -0.4461,3.25513 -3.01784,3.67765 -1.49573,4.27364 -0.41979,1.39089 -4.17236,3.5281 -1.23337,0.72084 -0.78722,0.89434 -1.9944,1.76404 -1.31208,0.91976 -1.2071,0.3978 -2.44039,1.44172 0.49858,1.441 1.33826,0.44719 2.25673,2.55895 2.30924,-0.57132 0.57735,-0.29835 2.54548,-1.01848 0.55105,0.94371 1.65318,2.0624 1.31205,3.5034 -0.81348,3.37927 -5.30076,0.6461 -1.02342,8.37378 0.13118,0.22353 0.55105,0.82031 0.55105,0.84501 0.62984,1.14264 0.26242,2.63372 -0.55105,3.97528 l -1.65319,1.76471 c -0.60355,0.96915 -0.99723,3.47874 -1.15463,5.06857 l -2.3355,1.04389 3.70005,4.34842 c 3.25392,-0.27295 1.23332,-0.67077 3.93624,-1.8635 2.12558,-0.94445 2.07308,-0.14893 3.04397,-2.13717 7.97747,0.54662 5.72066,-0.62069 4.27742,-3.13102 l 1.60071,-1.21742 c 0.57734,-0.54663 0.2099,-0.34772 0.68231,-0.72013 0.94466,-0.72087 1.36456,-0.54663 2.46669,-0.86967 0.15742,-0.0502 0.28863,-0.0996 0.41989,-0.12476 l 0.8659,-0.34774 c -0.15742,-1.71466 -3.35887,-6.2119 1.44331,-5.91355 0.65605,1.24209 0.26245,2.55898 0.52479,3.85115 l 1.07592,2.7085 c 0.91847,2.03773 0.0525,1.36697 0.65605,2.7586 l 1.2334,3.35386 2.51915,0.69617 c -0.70852,2.38548 -0.62981,0.77024 -1.28586,2.33537 1.5745,2.50962 2.57173,2.93211 5.74694,2.63448 0.10495,0 0.28866,-0.0257 0.41982,-0.0502 l 1.57452,-4.49724 c 0.55105,-2.03774 3.28018,0.72015 5.45823,-1.44172 1.31208,-1.56514 0.18366,-1.34156 1.23337,-3.03083 0.4724,-0.74554 1.75819,-1.06859 0.8135,-2.98219 -0.91847,-1.9136 -2.46668,-1.73935 -2.80789,-5.88888 1.73197,-1.0439 1.44334,-0.84498 4.14618,-0.84498 0.31492,1.61521 -0.0787,1.39163 0.60355,2.53428 l 7.87252,0.12475 c 4.77592,-5.04461 8.52819,-1.71468 15.06242,-2.58439 l 0.36734,-7.67831 c 3.01774,-0.24822 22.04332,0.29835 26.37288,0.94445 2.59815,0.3971 0.94445,0.72015 3.67399,1.06859 l -0.23587,-5.29286 c -8.55527,-1.19273 -3.75314,0.44718 -6.84928,-3.15569 l -3.5165,1.09328 c -1.20723,0.94445 0.73466,-0.72087 -0.47257,0.44719 l -0.41961,0.52193 c -1.78437,-1.31686 -1.7321,-1.06859 -3.62101,-1.73935 -0.44646,-3.08163 -0.94519,0.49654 -0.52486,-3.03155 0.23587,-1.98765 1.54772,-2.13718 -0.551,-2.75861 6.74404,-1.6145 2.75498,1.71469 4.27728,-11.82709 5.06419,-1.21814 1.41703,0.57132 4.64458,-2.13718 1.44319,-1.21742 1.15427,-0.4726 1.96806,-2.26132 0.63012,-1.36697 0.78692,0.4225 0.57711,-2.1372 -1.31177,-0.34772 -2.96475,-0.32305 -3.93606,-0.99381 0.65626,-2.38546 2.86021,-1.71469 5.85184,-3.25513 0.60327,-3.85115 -0.26206,-1.76405 -0.57713,-3.45407 -0.44644,-2.26059 0.6294,-0.24822 0.52486,-2.8573 -5.24859,-0.89438 -10.91677,-0.62143 -16.21764,-1.34156 -2.80794,-0.39782 -2.02029,-0.84501 -5.37924,-1.04392 l 0.34119,-8.79627 1.33793,-0.91906 c -0.18366,-3.42935 0.23664,-5.69069 -3.48962,-6.23732 l -0.99747,1.9136 -5.53679,-0.39782 c -0.31504,-5.06929 -1.60071,-6.83334 0.91832,-11.0075 0.0522,-0.0749 0.13144,-0.22353 0.2099,-0.32305 1.83738,0.14893 3.09688,0.37241 4.48708,0.57132 l -0.0522,-11.0823 c -2.54516,0.0748 -1.41705,0.14893 -2.80797,0.84501 l -1.67911,0.7949 c -1.70597,0.96915 -1.44316,2.16187 -3.83152,2.26132 0.86605,-1.76405 1.47004,-2.26132 1.41703,-4.572 -1.46929,-0.89437 -3.01774,-1.14336 -4.74986,-1.61524 -3.06996,-0.82031 -1.73159,-0.94445 -3.12243,-3.03155 l -5.9831,-0.24822 c -0.0787,-0.74554 -1.44326,-2.46023 1.94192,-2.36076 1.522,0.0257 2.62413,0.49727 4.53976,0.57132 1.75852,-1.86351 -0.49858,-2.03773 3.88409,-1.93829 1.94118,0.0502 3.98835,0.0995 5.93027,0.19884 l -0.68239,3.1811 c 4.06747,0.19806 4.74986,-0.4225 5.01192,3.30451 2.54589,-1.36697 6.27217,-3.92592 6.0355,-6.88269 -0.15691,-1.56588 -0.60324,-1.24283 -0.34046,-3.28057 l -1.83736,-1.8388 c 3.01774,-3.97528 -0.26209,-5.44169 -1.0236,-9.4172 -0.62938,-3.20541 -1.75751,-3.47871 -2.33534,-6.65932 2.49289,-0.9194 1.75823,0.8697 2.7818,-0.9194 1.18113,-2.03758 -0.15742,-1.63999 2.46677,-2.85754 1.54844,-0.72056 1.67911,-1.01879 2.46676,-2.36063 0.73466,-1.24239 0.47187,-0.54663 3.09616,-0.96907 1.39092,3.20541 3.46423,3.00665 6.69175,2.78307 -1.60071,-4.27394 -3.12301,0.0496 -2.86021,-7.10666 -1.18112,-0.59635 -1.70596,-0.91939 -3.09688,-1.51577 -2.86024,-1.26722 -3.85696,-3.25505 -7.1375,-3.55328 -2.4929,-0.22353 -1.70525,0.67092 -4.06747,-0.32305 0.34118,-1.93813 0.60399,-0.32297 0.49873,-1.96296 l -0.13144,-2.63395 c -0.41961,-1.26727 0.0262,0.44726 -0.70853,-1.04362 -0.47187,-0.99396 -0.551,-1.56541 -0.26208,-2.80789 0.57713,-2.45992 1.54847,-1.49087 0.23587,-5.21809 -0.36734,-1.04361 -0.551,-1.19272 -0.70852,-2.13697 0,0 -0.0785,-0.86968 -0.0785,-0.94422 -0.053,-0.81996 -0.13144,-0.42244 -0.0792,-1.54062 2.38836,0.84485 1.12883,1.96303 2.57202,-0.39752 1.75823,-2.85761 5.72044,-4.96968 6.19304,-8.12545 0.39345,-2.6836 -0.1052,-1.83874 1.33791,-3.52845 2.54588,-3.03147 -0.57714,-3.3048 -2.46676,-1.31694 -2.25625,2.36055 0.1052,1.04361 -1.02286,4.19937 z"
       style="fill:none;stroke:#3b847f;stroke-width:1.78442478px;stroke-linecap:butt;stroke-linejoin:miter;stroke-miterlimit:4;stroke-dasharray:none;stroke-opacity:1" />
    <circle
       style="fill:none;fill-opacity:1;stroke:#3b847f;stroke-width:1.1260001;stroke-linecap:round;stroke-linejoin:round;stroke-miterlimit:4;stroke-dasharray:none;stroke-dashoffset:0;stroke-opacity:1"
       id="path4214"
       cx="-610.66785"
       cy="335.84695"
       r="6.3486133" />
    <circle
       style="fill:none;fill-opacity:1;stroke:#3b847f;stroke-width:1.90400017;stroke-linecap:round;stroke-linejoin:round;stroke-miterlimit:4;stroke-dasharray:none;stroke-dashoffset:0;stroke-opacity:1"
       id="path4214-3"
       cx="-610.66785"
       cy="335.84695"
       r="2.3593988" />
    <path
       inkscape:connector-curvature="0"
       id="path4236"
       d="m -523.71982,403.96725 -1.56518,0 c -0.67015,0.31367 -1.81563,0.54181 -2.51437,0.85549 l -6.2306,3.62166 c -2.96189,1.71104 -4.58196,1.96768 -6.37051,-0.91253 -0.50241,-0.79849 -0.86569,-1.19772 -1.50877,-1.76805 -3.10101,-2.82319 -7.20838,-0.14258 -9.61142,1.31177 -1.59225,0.99811 -7.26402,3.96387 -8.15831,4.90495 1.11767,1.56842 2.96188,4.84787 6.28626,3.45056 l 6.84587,-3.96388 c 2.48653,-1.45436 5.8395,-2.19583 8.10267,0.0569 1.50874,1.51148 1.73213,2.33843 2.37443,2.93728 2.43088,2.33841 5.89517,-1.28325 10.58921,-3.73571 2.96185,-1.51142 6.09145,-1.36883 8.10264,0.68437 3.21307,3.30805 1.20192,5.53232 9.5836,0.48481 0.61446,-0.37075 1.00559,-0.59885 1.67651,-0.96957 0.30761,-0.17122 0.5588,-0.31368 0.83785,-0.48478 l 0.89428,-0.68442 c -3.8554,-5.13304 -3.52073,-4.90492 -9.4437,-1.56845 -0.97779,0.54185 -1.56442,1.11218 -3.01753,0.99811 -2.8498,-0.19955 -2.57079,-2.30987 -4.21867,-3.79276 -0.8943,-0.79846 -1.62085,-0.8555 -2.65426,-1.42582 z m -3.8005,26.66343 2.82197,0 0.0284,-11.60646 -2.93405,0 z m -12.6568,0 2.8506,0 0,-11.60646 -2.90624,0 z m 7.68375,0 c 0.58664,-5.87457 -1.62006,-8.52663 3.54853,-9.154 l 0,-2.33842 c -2.09544,-0.51331 -2.98973,0.91261 -3.8554,1.99625 l -0.19637,-2.08172 -2.3466,-0.0296 0.0555,11.57789 z m -41.07213,-2.30993 c -0.69797,-2.79466 1.03419,-3.39351 3.66064,-3.36499 0.30683,2.99424 -1.20192,4.79087 -3.66064,3.36499 z m -0.0836,2.56652 1.56444,0 c 0.89427,-0.51328 1.81636,-0.82696 2.37523,-1.53987 l 0.30759,1.28328 2.45871,0 c 0.0834,-8.44109 0.92134,-14.08744 -8.88564,-10.97904 l 0.47536,1.99616 c 2.09544,-0.7415 5.33632,-1.88213 5.44841,1.36883 -2.73851,0.25653 -5.39276,0.57026 -6.28627,2.48098 -0.531,1.14062 -0.69873,2.53797 0,3.65017 0.81005,1.28328 1.08906,1.11215 2.54217,1.73949 z m 11.45565,-0.25653 c 0.33546,-3.1084 -1.14549,-9.41066 2.40227,-9.46767 3.2695,-0.0569 1.84425,4.84788 2.20749,9.46767 l 2.79417,0 c 0.25113,-2.50952 0.36326,-8.01325 -0.64231,-9.95244 -0.55884,-1.11215 -1.67649,-1.93919 -3.49291,-1.91061 -2.01192,0.0568 -2.37519,1.05505 -3.54851,1.85351 l -0.11116,-1.59692 -2.48731,0 0.0843,11.60646 z m 11.65041,-5.07607 c -0.55805,-5.53232 5.14155,-6.0171 5.4206,-1.56844 0.36327,6.5019 -5.0573,5.19013 -5.4206,1.56844 z m 1.1741,5.33268 1.4245,0 c 0.69875,-0.31367 1.08987,-0.25654 1.81641,-0.71291 0.86567,-0.57036 0.6987,-0.82696 1.28538,-1.28328 l 0.13912,1.73958 2.4587,-0.0571 0,-16.22614 -2.87761,0.11395 -0.0555,5.70343 c -0.97777,-1.11214 -2.87765,-1.91069 -4.97306,-1.05516 -3.32515,1.36883 -4.05174,6.07417 -2.71067,8.92581 1.03418,2.19586 2.7663,2.50955 3.49288,2.85171 z m -42.63652,-0.25654 c 0.30684,-2.93725 -1.14581,-9.26803 2.17888,-9.46765 3.15745,-0.19955 1.87205,6.7585 2.15186,9.46765 l 2.65425,0 c 0.47456,-4.47722 -1.06203,-9.32513 2.15105,-9.46765 3.21309,-0.14257 1.75998,5.13305 2.15186,9.46765 l 2.73772,-0.0856 c 0.16762,-4.53424 1.20114,-12.23383 -4.24648,-11.74901 -1.70432,0.14257 -2.45872,1.16919 -3.32517,2.02463 -0.64231,-1.19768 -1.25754,-2.05312 -3.21309,-2.05312 -2.06758,0.0295 -2.5986,1.08363 -3.46429,1.93909 -0.0843,-1.96767 0.11116,-1.6825 -2.51495,-1.6825 l 0.0838,11.60646 z"
       style="fill:#ffffff;fill-opacity:1;fill-rule:evenodd;stroke:none" />
    <path
       inkscape:connector-curvature="0"
       id="path4238"
       d="m -623.39443,414.16911 c 0.93416,-0.42534 3.43645,-0.71982 4.67093,-0.29465 0.4004,0.13073 1.30123,0.98155 1.50135,1.24325 1.76834,2.1593 -2.0018,4.90746 -3.53653,6.08534 l -1.3012,1.11238 c -0.0334,-0.0339 -0.10007,0.13073 -0.13343,0.19609 1.56803,0.88338 4.67093,3.17349 5.30483,5.13657 0.53386,1.63577 -0.83411,2.9117 -1.93512,3.14071 -1.50133,0.32717 -3.7701,0.2618 -4.67094,-0.68703 -0.43372,-1.30862 -0.33365,-14.52617 0.10008,-15.93292 z m 5.03793,8.34268 0.26687,-0.32716 c 0.0334,-0.0654 0.10007,-0.13073 0.13344,-0.16358 0.0334,-0.0654 0.10007,-0.0982 0.13343,-0.16358 l 1.26779,-1.21053 c 2.83595,-3.43522 2.40227,-4.18774 1.43468,-6.9032 1.96846,0.0339 2.7025,-0.13074 3.83684,0.98151 2.66918,2.65 -3.13619,6.01984 -4.73768,7.65564 l 6.00549,5.13647 c 0.66733,0.65435 3.13629,2.32295 3.10286,3.10813 -1.5347,0.62157 -6.13891,0.22895 -8.20751,0.22895 1.2678,-3.56616 0.63389,-5.26743 -3.23633,-8.34278 z m 6.17234,-0.16358 c 2.03518,-2.97717 5.47172,-3.56616 3.20291,-8.5718 4.27067,0 2.60247,1.6686 2.76926,13.83913 -1.06763,-0.81787 -2.20207,-1.66846 -3.03615,-2.55182 -1.16768,-1.24325 -1.86841,-1.37412 -2.7025,-2.35563 z m -13.8127,7.65565 c 0.56715,3.56615 4.30397,3.17352 7.90726,3.17352 5.90544,0 12.61165,1.37418 13.9795,-2.51917 0.4004,-1.11238 0.23351,-3.72971 0.23351,-5.10378 0,-13.0539 1.73492,-14.10082 -7.9073,-14.10082 -13.17877,0 -14.24639,-1.63588 -14.24639,7.68842 0,2.71547 -0.33369,8.5063 0.0333,10.86183 z"
       style="fill:#ffffff;fill-opacity:1;fill-rule:evenodd;stroke:none" />
    <path
       inkscape:connector-curvature="0"
       id="path4240"
       d="m -670.62901,425.9798 c 0.0667,-0.39266 0.16679,-0.78519 0.26687,-1.21053 0.26686,-1.11238 -0.13343,-0.91608 2.0352,-0.91608 1.7016,0 1.10102,2.12661 -0.70065,2.12661 z m 27.95906,-2.12661 c 0.36697,-1.0796 1.00098,-2.48646 1.53471,-3.50066 l -0.0334,3.50066 z m -1.53474,-9.19334 c -0.20015,0.62165 -0.90084,1.63588 -1.2678,2.29013 -0.36708,0.589 -1.0343,1.6031 -1.30124,2.29023 l 1.26781,0 -5.77195,10.99273 5.80538,-0.0339 c 0.40029,-0.81792 0.76736,-1.76668 1.13434,-2.58465 l 3.20291,0.0653 0,2.58461 5.405,0 -0.60059,-15.60587 z m -5.70523,10.63291 c -0.10007,0.2618 -2.96944,1.3414 -5.03801,0.78522 -1.93512,-0.49084 -2.63577,-2.09393 -2.13534,-3.7297 0.36707,-1.30872 1.80167,-2.35563 3.33641,-2.68282 2.63574,-0.58886 3.63673,0.49084 4.83782,0.94886 0.23351,-0.71986 2.23535,-3.53337 2.53571,-4.35137 l -3.63673,-1.70128 c -0.5672,0.42535 -0.1668,0.32717 -1.16776,0.29465 -1.16768,-0.0653 -2.83588,0.16358 -3.9369,0.45803 -4.67101,1.30861 -7.90729,5.59452 -7.17334,10.17488 0.96759,6.05255 8.67467,5.79085 10.00929,4.94017 0.40029,-0.22895 2.23539,-4.77662 2.36885,-5.13646 z m -19.38453,-4.4822 c 0.0667,-0.55622 0.16678,-1.83215 0.6339,-2.06116 0.80076,0 1.4013,-0.0654 2.03524,0.16358 0.80066,2.32285 -1.80166,1.8975 -2.66914,1.8975 z m 4.83778,1.21053 c 2.46897,-0.75251 4.27062,-4.77663 1.73492,-6.47787 -2.50229,-1.6358 -6.40588,-1.0797 -9.77565,-1.0797 -0.367,0.71983 -0.83411,1.53773 -1.23447,2.29023 -0.33365,0.68705 -1.00091,1.76664 -1.23448,2.45368 l 1.16775,0 -2.86932,10.76377 c 1.9685,0 3.93698,0 5.87209,0 2.16864,0 3.20294,0.16359 5.07132,-0.75251 2.26881,-1.11227 3.63667,-3.07534 2.43557,-5.52902 -0.60057,-1.27592 -0.8675,-0.98155 -1.16773,-1.66858 z"
       style="fill:#ffffff;fill-opacity:1;fill-rule:evenodd;stroke:none" />
    <path
       inkscape:connector-curvature="0"
       id="path4260"
       d="m -452.36727,429.391 -0.5755,2.71651 5.3635,0.0691 0.78263,-3.45326 2.09477,-0.18422 c 0.64459,1.03597 1.15097,2.78559 1.81853,3.61434 l 5.38655,0.0238 0.87472,-4.35109 1.03589,-0.046 -0.92083,4.35103 11.32553,0.046 0.7136,-3.61444 -5.63975,0 0.23023,-1.03595 c 1.28908,-0.1151 8.14879,0.046 8.6322,-0.34531 0.27625,-0.23021 0.2302,-0.13822 0.41437,-1.03595 l 0.7366,-3.31514 0,-0.18421 -8.8164,0.29929 0.29924,-1.51942 5.6628,0 0.7366,-3.61435 -11.30248,0 -1.15097,5.59422 -1.05888,0.1611 1.19703,-5.75538 -5.40954,0 -1.40422,6.44599 -3.13062,-6.44599 -5.47856,0 -1.81851,8.70213 -1.05888,0.23022 1.88753,-8.93237 -5.43256,0 c -0.46035,2.21005 -0.92077,4.44312 -1.38111,6.67622 -0.94382,4.48924 -1.51929,2.90073 -4.719,3.4072 l -0.41433,2.07192 c -0.57547,0.13822 -4.51179,1.6345 -5.08728,2.21008 0.8057,0 4.18953,-0.6446 4.74198,-0.98996 l -0.11507,0.98996 c 1.84153,-0.0238 4.18947,0.13798 5.93897,-0.18422 2.02567,-0.36829 2.8774,-1.22012 3.75211,-2.44024 z"
       style="fill:#ffffff;fill-opacity:1;fill-rule:evenodd;stroke:none" />
    <path
       inkscape:connector-curvature="0"
       id="path4262"
       d="m -381.47824,424.19102 c 0.29929,1.10496 -0.16111,-0.48345 -0.55212,1.05897 1.33475,-0.34532 0.46042,-1.49642 1.93335,-0.18422 -0.43686,0.43738 0.0695,0.046 -0.48335,0.29923 l -1.10484,0.27627 c -4.05136,0.71369 -12.17701,3.52228 -15.92905,5.0187 -1.26598,0.50644 -4.32773,1.93378 -5.36382,2.09493 0.50627,-0.27628 1.70346,-1.56548 2.44025,-2.09493 2.62427,-1.91077 7.13604,-4.12087 8.65545,-5.31797 -1.47357,-0.43737 -6.51451,3.1079 -7.75757,3.93663 -2.04923,1.38134 -5.66311,4.0288 -6.62976,5.61727 1.9798,-0.64458 4.48883,-1.91077 6.53744,-2.73957 5.82357,-2.37118 14.87067,-5.61723 21.01648,-6.28481 -1.38123,-2.25617 -2.69306,-2.48631 -6.14581,-2.48631 0.391,-0.85183 1.38122,-2.02593 0.73615,-3.45326 -1.12778,-2.50933 -6.62915,-1.35827 -11.07214,-1.28921 -2.30205,0.0238 -15.74508,-0.0691 -16.5968,0.64459 2.53213,0.34538 16.32043,0 20.85577,0 2.41666,0 4.53468,-0.5525 6.03053,0.89782 0.25345,1.77272 -0.71322,2.94676 -1.42707,3.84465 z m -13.74227,1.08197 c -0.62152,0.1151 -0.36807,-0.13822 -0.5986,0.34529 -0.39099,0.8288 0.1611,0.48351 0.1611,0.48351 0.27639,-0.66765 0.27639,0.69062 0.4375,-0.8288 z m -4.76522,2.69352 c -0.52916,-2.83167 -0.48332,-2.69352 -1.38057,-2.64745 -0.1153,0.87482 0.27572,3.08482 0.98958,3.66042 0.62153,-0.48344 0.57568,-0.046 0.39099,-1.01297 z m 5.87008,-7.22875 c -0.78263,-1.31221 -1.91042,-0.78269 -4.46592,-0.75968 l -13.97247,0.2993 z m -11.23324,6.446 c -0.71386,-2.4863 0.18412,-1.74962 -1.10487,-1.91077 -0.3687,0.57552 -0.0923,1.38126 0.0917,2.04893 0.36871,1.33526 1.51943,3.59133 2.32499,4.35101 l 0.82911,-0.3683 -0.64446,-1.28919 c 1.45002,0.046 2.00213,0.2302 2.71599,-0.69066 l -3.42984,0 c -0.20691,-0.73668 -0.52919,-1.28919 -0.78263,-2.14102 z m -9.82929,-5.38698 c 0.48341,0.23021 21.38475,0.43738 22.7889,0.1151 -1.49585,-1.10504 -3.01526,-0.66758 -5.29438,-0.6216 -2.99234,0.092 -16.48168,0.13823 -17.49452,0.50654 z m 24.5153,1.22011 c -1.86458,-0.8748 -10.4277,-0.25321 -13.3277,-0.20733 -0.92082,0.0238 -12.24649,-0.0238 -13.07521,0.57559 l 25.89664,-0.046 c 0.69093,-0.20734 0.023,0.13822 0.50627,-0.3223 z m 1.70344,1.68057 c -1.22013,-1.40434 -4.94925,-0.69066 -7.13603,-0.66759 -3.45277,0.046 -21.86811,0.0691 -22.71976,0.66759 z m -15.90611,-6.37695 c 1.7493,-0.0238 1.12778,-0.23021 2.07151,-1.24316 1.38124,-1.49639 4.09784,-3.03881 6.35342,-2.90068 -1.45,1.26616 -2.57779,1.81869 -3.31457,4.05175 1.95627,-0.2302 1.38123,-2.16399 3.89023,-3.49925 0,1.01296 -0.23051,2.69352 0.20691,3.38413 0.80558,-0.3223 0.4375,-1.05897 0.4375,-3.36111 0.80555,0.36834 1.24304,0.8748 1.81871,1.58849 0.82849,1.08201 0.62154,1.72661 1.97919,1.63454 -0.6215,-1.38132 -2.04859,-2.90073 -3.22223,-3.79855 1.95627,-0.18422 4.97218,1.40429 6.16874,2.64745 0.9673,1.01295 0.34577,1.12803 2.07217,1.05901 -3.66036,-7.13666 -16.48182,-5.5712 -18.46162,0.43738 z m 12.36165,14.06609 c 0.64445,-0.75967 1.17364,-1.35826 1.45001,-2.34815 l 3.8444,-0.0238 c -1.01317,2.21 -3.98258,4.07479 -7.41242,4.4431 z m -9.18527,1.17411 c 4.32773,4.25895 15.21583,1.42735 16.78109,-5.75535 -1.54233,0.23021 -1.19657,0.18421 -1.61111,1.51942 -7.96454,-0.092 -4.35065,1.42733 -8.65547,4.58124 -0.0689,-0.89782 0.13809,-2.25609 -0.27573,-2.8086 -0.73678,0.52951 -0.36872,1.65755 -0.48397,2.78561 -0.52918,-0.41439 -0.64446,-0.43738 -1.12778,-0.98991 -0.73678,-0.87482 -0.27639,-0.92089 -1.49585,-0.66766 0.29929,0.80574 1.47293,1.54248 2.09445,2.23307 -4.07428,-0.41436 -2.94651,-1.65754 -5.22563,-0.89782 z"
       style="fill:#ffffff;fill-opacity:1;fill-rule:evenodd;stroke:none" />
    <path
       inkscape:connector-curvature="0"
       id="path4304"
       d="m -675.80154,455.70229 10.6645,0.0471 -0.0249,7.57372 -10.7392,-0.0471 z m 5.50665,4.0582 c 0,0.73143 0.12457,1.2269 -0.17439,1.81674 -0.44849,-0.58984 -0.27408,-0.80221 -0.27408,-1.62799 -0.0747,-0.30667 -1.7442,-2.07628 0.12456,-2.265 0.52326,-0.0471 2.14283,0.70779 0.32391,2.07625 z m -1.07143,0.58984 c 0,1.10895 -0.12457,2.05268 1.42028,1.65159 0.44853,-0.80217 0.22422,-1.15612 0.32392,-2.05268 0.49835,-0.54263 0.89705,-0.77857 0.72259,-1.62802 -0.3987,-1.6987 -2.94021,-1.55719 -3.18939,0.0945 -0.17439,1.17968 0.57309,1.06174 0.7226,1.93468 z m -1.84386,-5.35585 c -0.69767,-6.01648 6.02991,-6.39398 5.50664,0.0244 z m -0.84717,0 -2.49171,0.0943 c -0.14947,1.2269 -0.1993,7.99842 0.0997,8.82421 l 11.88543,0.0943 c 0.32391,-0.99094 0.24918,-7.64451 0.0747,-8.87136 l -2.34218,-0.11797 c -0.37374,-2.19427 -0.34885,-5.35588 -3.61297,-5.40304 -3.16446,-0.0471 -3.43855,3.1144 -3.61296,5.37944 z"
       style="fill:#999999;fill-opacity:1;fill-rule:evenodd;stroke:none" />
  </g>
</svg>
